<svg width="19" height="20" viewBox="0 0 19 20" fill="none" xmlns="http://www.w3.org/2000/svg">
<path fill-rule="evenodd" clip-rule="evenodd" d="M9.09961 2C7.44276 2 6.09961 3.34315 6.09961 5C6.09961 6.65685 7.44276 8 9.09961 8C10.7565 8 12.0996 6.65685 12.0996 5C12.0996 3.34315 10.7565 2 9.09961 2ZM4.09961 5C4.09961 2.23858 6.33819 0 9.09961 0C11.861 0 14.0996 2.23858 14.0996 5C14.0996 7.76142 11.861 10 9.09961 10C6.33819 10 4.09961 7.76142 4.09961 5ZM1.66535 13.442C2.65725 12.5121 3.98955 12 5.36628 12H12.8329C14.2097 12 15.542 12.5121 16.5339 13.442C17.528 14.374 18.0996 15.6523 18.0996 17V19C18.0996 19.5523 17.6519 20 17.0996 20C16.5473 20 16.0996 19.5523 16.0996 19V17C16.0996 16.2259 15.7722 15.4694 15.166 14.9011C14.5576 14.3307 13.7194 14 12.8329 14H5.36628C4.47983 14 3.64163 14.3307 3.03323 14.9011C2.42701 15.4694 2.09961 16.2259 2.09961 17V19C2.09961 19.5523 1.65189 20 1.09961 20C0.547325 20 0.0996094 19.5523 0.0996094 19V17C0.0996094 15.6523 0.671252 14.374 1.66535 13.442Z" fill="white"/>
</svg>
