<svg width="123" height="34" viewBox="0 0 123 34" fill="none" xmlns="http://www.w3.org/2000/svg">
<rect x="0.522461" width="122" height="34" rx="4" fill="#A0A8B1"/>
<path d="M24.7469 17.3536C24.7232 14.7752 26.9123 13.5208 27.0124 13.4624C25.7726 11.7 23.8509 11.4592 23.1757 11.44C21.5617 11.2744 19.9962 12.3816 19.174 12.3816C18.3355 12.3816 17.0694 11.456 15.7049 11.4832C13.949 11.5096 12.3063 12.5008 11.4054 14.04C9.54613 17.1784 10.9328 21.7904 12.7141 24.3272C13.6052 25.5696 14.6464 26.9568 16.0093 26.908C17.3426 26.8544 17.8407 26.0792 19.4497 26.0792C21.044 26.0792 21.5117 26.908 22.9016 26.8768C24.3326 26.8544 25.2335 25.6288 26.0934 24.3752C27.1232 22.9512 27.5367 21.5488 27.5531 21.4768C27.5195 21.4656 24.774 20.444 24.7469 17.3536Z" fill="white"/>
<path d="M22.1213 9.7712C22.8384 8.8968 23.3291 7.7072 23.1929 6.5C22.1549 6.5448 20.8569 7.2 20.1094 8.0552C19.4481 8.8088 18.8573 10.044 19.0099 11.2056C20.1759 11.2904 21.373 10.632 22.1213 9.7712Z" fill="white"/>
<path d="M37.2825 9.336V12H36.5465V9.336L34.6185 6.272H35.4825L36.8985 8.6H36.9305L38.3145 6.272H39.1785L37.2825 9.336ZM42.7189 12H42.0149V11.456H41.9829C41.8709 11.648 41.6976 11.808 41.4629 11.936C41.2336 12.064 40.9936 12.128 40.7429 12.128C40.2629 12.128 39.8922 11.992 39.6309 11.72C39.3749 11.4427 39.2469 11.0507 39.2469 10.544V8.08H39.9829V10.496C39.9989 11.136 40.3216 11.456 40.9509 11.456C41.2442 11.456 41.4896 11.3387 41.6869 11.104C41.8842 10.864 41.9829 10.5787 41.9829 10.248V8.08H42.7189V12ZM47.2228 12H46.3348L45.1108 10.152L44.5108 10.744V12H43.7748V6.272H44.5108V9.8L46.2068 8.08H47.1508V8.112L45.6228 9.632L47.2228 11.968V12ZM48.538 6.272V12H47.802V6.272H48.538ZM50.0918 10.8C50.0918 10.992 50.1718 11.152 50.3318 11.28C50.4971 11.408 50.6891 11.472 50.9078 11.472C51.2171 11.472 51.4918 11.3573 51.7318 11.128C51.9771 10.8987 52.0998 10.6293 52.0998 10.32C51.8704 10.1387 51.5504 10.048 51.1398 10.048C50.8411 10.048 50.5904 10.12 50.3878 10.264C50.1904 10.408 50.0918 10.5867 50.0918 10.8ZM51.0438 7.952C51.5878 7.952 52.0171 8.09867 52.3318 8.392C52.6464 8.68 52.8038 9.07733 52.8038 9.584V12H52.0998V11.456H52.0678C51.7638 11.904 51.3584 12.128 50.8518 12.128C50.4198 12.128 50.0571 12 49.7638 11.744C49.4758 11.488 49.3318 11.168 49.3318 10.784C49.3318 10.3787 49.4838 10.056 49.7878 9.816C50.0971 9.576 50.5078 9.456 51.0198 9.456C51.4571 9.456 51.8171 9.536 52.0998 9.696V9.528C52.0998 9.272 51.9984 9.056 51.7958 8.88C51.5931 8.69867 51.3558 8.608 51.0838 8.608C50.6731 8.608 50.3478 8.78133 50.1078 9.128L49.4598 8.72C49.8171 8.208 50.3451 7.952 51.0438 7.952ZM55.8659 12.128C55.5779 12.128 55.3139 12.0667 55.0739 11.944C54.8392 11.8213 54.6579 11.6587 54.5299 11.456H54.4979V12H53.7939V6.272H54.5299V8.08L54.4979 8.624H54.5299C54.6579 8.42133 54.8392 8.25867 55.0739 8.136C55.3139 8.01333 55.5779 7.952 55.8659 7.952C56.3832 7.952 56.8206 8.15467 57.1779 8.56C57.5459 8.97067 57.7299 9.464 57.7299 10.04C57.7299 10.6213 57.5459 11.1147 57.1779 11.52C56.8206 11.9253 56.3832 12.128 55.8659 12.128ZM55.7459 11.456C56.0979 11.456 56.3939 11.3227 56.6339 11.056C56.8739 10.7947 56.9939 10.456 56.9939 10.04C56.9939 9.62933 56.8739 9.29067 56.6339 9.024C56.3939 8.75733 56.0979 8.624 55.7459 8.624C55.3886 8.624 55.0899 8.75733 54.8499 9.024C54.6152 9.29067 54.4979 9.62933 54.4979 10.04C54.4979 10.456 54.6152 10.7973 54.8499 11.064C55.0899 11.3253 55.3886 11.456 55.7459 11.456ZM60.2571 10.04C60.2571 9.43733 60.4464 8.93867 60.8251 8.544C61.2091 8.14933 61.6918 7.952 62.2731 7.952C62.8544 7.952 63.3344 8.14933 63.7131 8.544C64.0971 8.93867 64.2891 9.43733 64.2891 10.04C64.2891 10.648 64.0971 11.1467 63.7131 11.536C63.3344 11.9307 62.8544 12.128 62.2731 12.128C61.6918 12.128 61.2091 11.9307 60.8251 11.536C60.4464 11.1413 60.2571 10.6427 60.2571 10.04ZM60.9931 10.04C60.9931 10.4613 61.1158 10.8027 61.3611 11.064C61.6064 11.3253 61.9104 11.456 62.2731 11.456C62.6358 11.456 62.9398 11.3253 63.1851 11.064C63.4304 10.8027 63.5531 10.4613 63.5531 10.04C63.5531 9.624 63.4304 9.28533 63.1851 9.024C62.9344 8.75733 62.6304 8.624 62.2731 8.624C61.9158 8.624 61.6118 8.75733 61.3611 9.024C61.1158 9.28533 60.9931 9.624 60.9931 10.04ZM65.8146 6.272V12H65.0786V6.272H65.8146ZM67.8234 6.728C67.8234 6.872 67.7727 6.99467 67.6714 7.096C67.5701 7.19733 67.4474 7.248 67.3034 7.248C67.1594 7.248 67.0367 7.19733 66.9354 7.096C66.8341 6.99467 66.7834 6.872 66.7834 6.728C66.7834 6.584 66.8341 6.46133 66.9354 6.36C67.0367 6.25867 67.1594 6.208 67.3034 6.208C67.4474 6.208 67.5701 6.25867 67.6714 6.36C67.7727 6.46133 67.8234 6.584 67.8234 6.728ZM67.6714 8.08V12H66.9354V8.08H67.6714ZM71.7892 10.912C71.7892 11.2533 71.6399 11.5413 71.3412 11.776C71.0425 12.0107 70.6665 12.128 70.2132 12.128C69.8185 12.128 69.4719 12.0267 69.1732 11.824C68.8745 11.616 68.6612 11.344 68.5332 11.008L69.1892 10.728C69.2852 10.9627 69.4239 11.1467 69.6052 11.28C69.7919 11.408 69.9945 11.472 70.2132 11.472C70.4479 11.472 70.6425 11.4213 70.7972 11.32C70.9572 11.2187 71.0372 11.0987 71.0372 10.96C71.0372 10.7093 70.8452 10.5253 70.4612 10.408L69.7892 10.24C69.0265 10.048 68.6452 9.68 68.6452 9.136C68.6452 8.77867 68.7892 8.49333 69.0772 8.28C69.3705 8.06133 69.7439 7.952 70.1972 7.952C70.5439 7.952 70.8559 8.03467 71.1332 8.2C71.4159 8.36533 71.6132 8.58667 71.7252 8.864L71.0692 9.136C70.9945 8.97067 70.8719 8.84267 70.7012 8.752C70.5359 8.656 70.3492 8.608 70.1412 8.608C69.9492 8.608 69.7759 8.656 69.6212 8.752C69.4719 8.848 69.3972 8.96533 69.3972 9.104C69.3972 9.328 69.6079 9.488 70.0292 9.584L70.6212 9.736C71.3999 9.928 71.7892 10.32 71.7892 10.912ZM72.5898 6.272H73.3258V8.08L73.2938 8.624H73.3258C73.4378 8.432 73.6085 8.272 73.8378 8.144C74.0725 8.016 74.3152 7.952 74.5658 7.952C75.0458 7.952 75.4138 8.09067 75.6698 8.368C75.9312 8.64 76.0618 9.02933 76.0618 9.536V12H75.3258V9.68C75.3258 8.976 75.0138 8.624 74.3898 8.624C74.0912 8.624 73.8378 8.74933 73.6298 9C73.4272 9.24533 73.3258 9.53333 73.3258 9.864V12H72.5898V6.272Z" fill="white"/>
<path d="M44.4477 26.6298H42.4414L41.3425 23.2628H37.5226L36.4757 26.6298H34.5225L38.307 15.1671H40.6446L44.4477 26.6298ZM41.0112 21.8502L40.0173 18.8571C39.9122 18.5513 39.7152 17.8312 39.4246 16.6977H39.3892C39.2735 17.1852 39.0871 17.9053 38.8309 18.8571L37.8547 21.8502H41.0112V21.8502Z" fill="white"/>
<path d="M54.1803 22.3979C54.1803 23.8036 53.7907 24.9147 53.0115 25.7304C52.3136 26.4565 51.447 26.8191 50.4125 26.8191C49.2959 26.8191 48.4937 26.4281 48.0052 25.646H47.9698V30H46.0864V21.0878C46.0864 20.2041 46.0625 19.2971 46.0166 18.3668H47.673L47.7781 19.6769H47.8135C48.4416 18.6898 49.3948 18.1971 50.674 18.1971C51.674 18.1971 52.5089 18.5822 53.1767 19.3531C53.8464 20.1248 54.1803 21.1395 54.1803 22.3979ZM52.2615 22.4651C52.2615 21.6606 52.076 20.9973 51.7032 20.4754C51.2959 19.931 50.7491 19.6588 50.0636 19.6588C49.5989 19.6588 49.1766 19.8104 48.7994 20.1093C48.4213 20.4108 48.1739 20.8044 48.0582 21.2919C47.9999 21.5193 47.9707 21.7054 47.9707 21.8518V23.2299C47.9707 23.8311 48.1598 24.3385 48.5379 24.7528C48.916 25.1671 49.4072 25.3738 50.0114 25.3738C50.7208 25.3738 51.273 25.1068 51.6678 24.5745C52.0636 24.0413 52.2615 23.3385 52.2615 22.4651Z" fill="white"/>
<path d="M63.9323 22.3979C63.9323 23.8036 63.5428 24.9147 62.7627 25.7304C62.0657 26.4565 61.199 26.8191 60.1645 26.8191C59.0479 26.8191 58.2458 26.4281 57.7581 25.646H57.7228V30H55.8393V21.0878C55.8393 20.2041 55.8155 19.2971 55.7695 18.3668H57.4259L57.5311 19.6769H57.5664C58.1936 18.6898 59.1469 18.1971 60.4269 18.1971C61.4261 18.1971 62.2609 18.5822 62.9305 19.3531C63.5975 20.1248 63.9323 21.1395 63.9323 22.3979ZM62.0136 22.4651C62.0136 21.6606 61.8271 20.9973 61.4543 20.4754C61.0471 19.931 60.502 19.6588 59.8156 19.6588C59.35 19.6588 58.9286 19.8104 58.5505 20.1093C58.1724 20.4108 57.926 20.8044 57.8102 21.2919C57.7528 21.5193 57.7228 21.7054 57.7228 21.8518V23.2299C57.7228 23.8311 57.9118 24.3385 58.2882 24.7528C58.6663 25.1662 59.1575 25.3738 59.7635 25.3738C60.4729 25.3738 61.025 25.1068 61.4199 24.5745C61.8157 24.0413 62.0136 23.3385 62.0136 22.4651Z" fill="white"/>
<path d="M74.8326 23.4161C74.8326 24.3911 74.4854 25.1844 73.7884 25.7968C73.0225 26.4661 71.9562 26.8003 70.586 26.8003C69.3209 26.8003 68.3068 26.5626 67.5391 26.0863L67.9755 24.5557C68.8024 25.0432 69.7096 25.2878 70.6982 25.2878C71.4076 25.2878 71.9597 25.131 72.3564 24.8192C72.7512 24.5074 72.9482 24.0888 72.9482 23.5668C72.9482 23.1017 72.7857 22.7098 72.4597 22.392C72.1355 22.0741 71.594 21.7787 70.8378 21.5057C68.7794 20.7572 67.7511 19.6607 67.7511 18.2188C67.7511 17.2765 68.1115 16.5039 68.8333 15.9027C69.5524 15.3006 70.5118 15 71.7115 15C72.7813 15 73.67 15.1817 74.3794 15.5444L73.9085 17.0414C73.246 16.6899 72.4968 16.5142 71.6585 16.5142C70.9959 16.5142 70.4782 16.6736 70.1072 16.9905C69.7936 17.2739 69.6363 17.6193 69.6363 18.0285C69.6363 18.4815 69.8156 18.8562 70.1761 19.1508C70.4897 19.423 71.0595 19.7175 71.8864 20.0354C72.8979 20.4324 73.6409 20.8967 74.1188 21.429C74.595 21.9596 74.8326 22.6237 74.8326 23.4161Z" fill="white"/>
<path d="M81.0602 19.7423H78.9841V23.7552C78.9841 24.7759 79.3499 25.2858 80.0831 25.2858C80.4197 25.2858 80.6989 25.2574 80.9197 25.2006L80.9718 26.5951C80.6008 26.7303 80.1123 26.7983 79.5071 26.7983C78.7633 26.7983 78.182 26.577 77.7624 26.1351C77.3445 25.6924 77.1342 24.9499 77.1342 23.9068V19.7406H75.8975V18.3624H77.1342V16.8491L78.9841 16.3047V18.3624H81.0602V19.7423Z" fill="white"/>
<path d="M90.4263 22.4298C90.4263 23.7002 90.0535 24.7433 89.3097 25.559C88.5296 26.3988 87.4942 26.8174 86.2036 26.8174C84.9597 26.8174 83.9694 26.4152 83.2309 25.6107C82.4923 24.8062 82.123 23.7907 82.123 22.5667C82.123 21.2859 82.5029 20.2368 83.2653 19.4211C84.0259 18.6046 85.0525 18.1963 86.3431 18.1963C87.587 18.1963 88.5879 18.5985 89.3432 19.4039C90.0659 20.1851 90.4263 21.1937 90.4263 22.4298ZM88.4722 22.4892C88.4722 21.7269 88.3052 21.0731 87.9669 20.5279C87.572 19.8681 87.0075 19.5391 86.276 19.5391C85.5189 19.5391 84.9438 19.869 84.5489 20.5279C84.2106 21.074 84.0436 21.7381 84.0436 22.5236C84.0436 23.2859 84.2106 23.9397 84.5489 24.484C84.9562 25.1438 85.5251 25.4728 86.2592 25.4728C86.9783 25.4728 87.5428 25.1369 87.9501 24.4668C88.2973 23.9112 88.4722 23.2506 88.4722 22.4892Z" fill="white"/>
<path d="M96.5472 19.9818C96.3608 19.9482 96.162 19.931 95.9536 19.931C95.291 19.931 94.7786 20.1748 94.4182 20.6631C94.1046 21.0938 93.9473 21.6382 93.9473 22.2954V26.6322H92.0647L92.0824 20.9698C92.0824 20.0171 92.0585 19.1498 92.0117 18.3677H93.6522L93.7211 19.9491H93.7733C93.972 19.4056 94.2857 18.968 94.715 18.6399C95.1346 18.3444 95.5878 18.1971 96.0764 18.1971C96.2504 18.1971 96.4076 18.2092 96.5472 18.2307V19.9818Z" fill="white"/>
<path d="M104.972 22.1069C104.972 22.4359 104.95 22.7133 104.903 22.9398H99.253C99.2751 23.7563 99.5481 24.3808 100.073 24.8115C100.549 25.1965 101.165 25.3894 101.921 25.3894C102.758 25.3894 103.521 25.2594 104.207 24.9984L104.502 26.2732C103.7 26.6142 102.753 26.7839 101.66 26.7839C100.346 26.7839 99.314 26.4067 98.5631 25.653C97.8139 24.8993 97.4385 23.8873 97.4385 22.6177C97.4385 21.3713 97.7874 20.3334 98.4862 19.5056C99.2177 18.6219 100.206 18.1801 101.45 18.1801C102.672 18.1801 103.597 18.6219 104.225 19.5056C104.722 20.2076 104.972 21.0759 104.972 22.1069ZM103.176 21.6306C103.189 21.0862 103.066 20.6159 102.811 20.2188C102.485 19.7081 101.984 19.4531 101.31 19.4531C100.694 19.4531 100.193 19.702 99.8105 20.2016C99.4968 20.5987 99.3104 21.075 99.253 21.6297H103.176V21.6306Z" fill="white"/>
</svg>
