<svg width="123" height="34" viewBox="0 0 123 34" fill="none" xmlns="http://www.w3.org/2000/svg">
<rect x="0.522461" width="122.478" height="34" rx="4" fill="#A0A8B1"/>
<path d="M24.7875 20.4911L21.3369 17.118V16.8792L24.7917 13.5062L24.8691 13.55L28.9605 15.8229C30.1281 16.4679 30.1281 17.5293 28.9605 18.1784L24.8691 20.4472L24.7875 20.4911Z" fill="white"/>
<path d="M24.8692 20.4466L21.337 16.998L10.9131 27.1764C11.3009 27.5744 11.9333 27.6224 12.6525 27.2244L24.8692 20.4466Z" fill="#F5F5F5"/>
<path d="M24.8692 13.55L12.6525 6.7722C11.9333 6.37825 11.3009 6.42622 10.9131 6.82425L21.337 16.9985L24.8692 13.55Z" fill="#F5F5F5"/>
<path d="M39.2825 9.336V12H38.5465V9.336L36.6185 6.272H37.4825L38.8985 8.6H38.9305L40.3145 6.272H41.1785L39.2825 9.336ZM44.7189 12H44.0149V11.456H43.9829C43.8709 11.648 43.6976 11.808 43.4629 11.936C43.2336 12.064 42.9936 12.128 42.7429 12.128C42.2629 12.128 41.8922 11.992 41.6309 11.72C41.3749 11.4427 41.2469 11.0507 41.2469 10.544V8.08H41.9829V10.496C41.9989 11.136 42.3216 11.456 42.9509 11.456C43.2442 11.456 43.4896 11.3387 43.6869 11.104C43.8842 10.864 43.9829 10.5787 43.9829 10.248V8.08H44.7189V12ZM49.2228 12H48.3348L47.1108 10.152L46.5108 10.744V12H45.7748V6.272H46.5108V9.8L48.2068 8.08H49.1508V8.112L47.6228 9.632L49.2228 11.968V12ZM50.538 6.272V12H49.802V6.272H50.538ZM52.0918 10.8C52.0918 10.992 52.1718 11.152 52.3318 11.28C52.4971 11.408 52.6891 11.472 52.9078 11.472C53.2171 11.472 53.4918 11.3573 53.7318 11.128C53.9771 10.8987 54.0998 10.6293 54.0998 10.32C53.8704 10.1387 53.5504 10.048 53.1398 10.048C52.8411 10.048 52.5904 10.12 52.3878 10.264C52.1904 10.408 52.0918 10.5867 52.0918 10.8ZM53.0438 7.952C53.5878 7.952 54.0171 8.09867 54.3318 8.392C54.6464 8.68 54.8038 9.07733 54.8038 9.584V12H54.0998V11.456H54.0678C53.7638 11.904 53.3584 12.128 52.8518 12.128C52.4198 12.128 52.0571 12 51.7638 11.744C51.4758 11.488 51.3318 11.168 51.3318 10.784C51.3318 10.3787 51.4838 10.056 51.7878 9.816C52.0971 9.576 52.5078 9.456 53.0198 9.456C53.4571 9.456 53.8171 9.536 54.0998 9.696V9.528C54.0998 9.272 53.9984 9.056 53.7958 8.88C53.5931 8.69867 53.3558 8.608 53.0838 8.608C52.6731 8.608 52.3478 8.78133 52.1078 9.128L51.4598 8.72C51.8171 8.208 52.3451 7.952 53.0438 7.952ZM57.8659 12.128C57.5779 12.128 57.3139 12.0667 57.0739 11.944C56.8392 11.8213 56.6579 11.6587 56.5299 11.456H56.4979V12H55.7939V6.272H56.5299V8.08L56.4979 8.624H56.5299C56.6579 8.42133 56.8392 8.25867 57.0739 8.136C57.3139 8.01333 57.5779 7.952 57.8659 7.952C58.3832 7.952 58.8206 8.15467 59.1779 8.56C59.5459 8.97067 59.7299 9.464 59.7299 10.04C59.7299 10.6213 59.5459 11.1147 59.1779 11.52C58.8206 11.9253 58.3832 12.128 57.8659 12.128ZM57.7459 11.456C58.0979 11.456 58.3939 11.3227 58.6339 11.056C58.8739 10.7947 58.9939 10.456 58.9939 10.04C58.9939 9.62933 58.8739 9.29067 58.6339 9.024C58.3939 8.75733 58.0979 8.624 57.7459 8.624C57.3886 8.624 57.0899 8.75733 56.8499 9.024C56.6152 9.29067 56.4979 9.62933 56.4979 10.04C56.4979 10.456 56.6152 10.7973 56.8499 11.064C57.0899 11.3253 57.3886 11.456 57.7459 11.456ZM62.2571 10.04C62.2571 9.43733 62.4464 8.93867 62.8251 8.544C63.2091 8.14933 63.6918 7.952 64.2731 7.952C64.8544 7.952 65.3344 8.14933 65.7131 8.544C66.0971 8.93867 66.2891 9.43733 66.2891 10.04C66.2891 10.648 66.0971 11.1467 65.7131 11.536C65.3344 11.9307 64.8544 12.128 64.2731 12.128C63.6918 12.128 63.2091 11.9307 62.8251 11.536C62.4464 11.1413 62.2571 10.6427 62.2571 10.04ZM62.9931 10.04C62.9931 10.4613 63.1158 10.8027 63.3611 11.064C63.6064 11.3253 63.9104 11.456 64.2731 11.456C64.6358 11.456 64.9398 11.3253 65.1851 11.064C65.4304 10.8027 65.5531 10.4613 65.5531 10.04C65.5531 9.624 65.4304 9.28533 65.1851 9.024C64.9344 8.75733 64.6304 8.624 64.2731 8.624C63.9158 8.624 63.6118 8.75733 63.3611 9.024C63.1158 9.28533 62.9931 9.624 62.9931 10.04ZM67.8146 6.272V12H67.0786V6.272H67.8146ZM69.8234 6.728C69.8234 6.872 69.7727 6.99467 69.6714 7.096C69.5701 7.19733 69.4474 7.248 69.3034 7.248C69.1594 7.248 69.0367 7.19733 68.9354 7.096C68.8341 6.99467 68.7834 6.872 68.7834 6.728C68.7834 6.584 68.8341 6.46133 68.9354 6.36C69.0367 6.25867 69.1594 6.208 69.3034 6.208C69.4474 6.208 69.5701 6.25867 69.6714 6.36C69.7727 6.46133 69.8234 6.584 69.8234 6.728ZM69.6714 8.08V12H68.9354V8.08H69.6714ZM73.7892 10.912C73.7892 11.2533 73.6399 11.5413 73.3412 11.776C73.0425 12.0107 72.6665 12.128 72.2132 12.128C71.8185 12.128 71.4719 12.0267 71.1732 11.824C70.8745 11.616 70.6612 11.344 70.5332 11.008L71.1892 10.728C71.2852 10.9627 71.4239 11.1467 71.6052 11.28C71.7919 11.408 71.9945 11.472 72.2132 11.472C72.4479 11.472 72.6425 11.4213 72.7972 11.32C72.9572 11.2187 73.0372 11.0987 73.0372 10.96C73.0372 10.7093 72.8452 10.5253 72.4612 10.408L71.7892 10.24C71.0265 10.048 70.6452 9.68 70.6452 9.136C70.6452 8.77867 70.7892 8.49333 71.0772 8.28C71.3705 8.06133 71.7439 7.952 72.1972 7.952C72.5439 7.952 72.8559 8.03467 73.1332 8.2C73.4159 8.36533 73.6132 8.58667 73.7252 8.864L73.0692 9.136C72.9945 8.97067 72.8719 8.84267 72.7012 8.752C72.5359 8.656 72.3492 8.608 72.1412 8.608C71.9492 8.608 71.7759 8.656 71.6212 8.752C71.4719 8.848 71.3972 8.96533 71.3972 9.104C71.3972 9.328 71.6079 9.488 72.0292 9.584L72.6212 9.736C73.3999 9.928 73.7892 10.32 73.7892 10.912ZM74.5898 6.272H75.3258V8.08L75.2938 8.624H75.3258C75.4378 8.432 75.6085 8.272 75.8378 8.144C76.0725 8.016 76.3152 7.952 76.5658 7.952C77.0458 7.952 77.4138 8.09067 77.6698 8.368C77.9312 8.64 78.0618 9.02933 78.0618 9.536V12H77.3258V9.68C77.3258 8.976 77.0138 8.624 76.3898 8.624C76.0912 8.624 75.8378 8.74933 75.6298 9C75.4272 9.24533 75.3258 9.53333 75.3258 9.864V12H74.5898V6.272Z" fill="white"/>
<path d="M60.9642 19.145C58.8454 19.145 57.1146 20.7193 57.1146 22.8914C57.1146 25.0459 58.8454 26.6367 60.9642 26.6367C63.0874 26.6367 64.8183 25.0459 64.8183 22.8914C64.8183 20.7193 63.0874 19.145 60.9642 19.145ZM60.9642 25.1615C59.8016 25.1615 58.8015 24.2246 58.8015 22.8914C58.8015 21.5406 59.8016 20.6202 60.9642 20.6202C62.1267 20.6202 63.1314 21.5406 63.1314 22.8914C63.1314 24.2246 62.1267 25.1615 60.9642 25.1615ZM52.5647 19.145C50.4415 19.145 48.7151 20.7193 48.7151 22.8914C48.7151 25.0459 50.4415 26.6367 52.5647 26.6367C54.6869 26.6367 56.4143 25.0459 56.4143 22.8914C56.4143 20.7193 54.6869 19.145 52.5647 19.145ZM52.5647 25.1615C51.4011 25.1615 50.3975 24.2246 50.3975 22.8914C50.3975 21.5406 51.4011 20.6202 52.5647 20.6202C53.7273 20.6202 54.7275 21.5406 54.7275 22.8914C54.7275 24.2246 53.7273 25.1615 52.5647 25.1615ZM42.5697 20.2932V21.8851H46.4633C46.3494 22.7747 46.045 23.4286 45.5782 23.8844C45.0099 24.4349 44.1247 25.0459 42.5697 25.0459C40.1736 25.0459 38.2973 23.1578 38.2973 20.8184C38.2973 18.4789 40.1736 16.5908 42.5697 16.5908C43.8653 16.5908 44.808 17.0851 45.5037 17.7259L46.6528 16.604C45.6796 15.6969 44.3852 15 42.5697 15C39.2839 15 36.5225 17.6103 36.5225 20.8184C36.5225 24.0264 39.2839 26.6367 42.5697 26.6367C44.3457 26.6367 45.6796 26.0686 46.7283 25.0029C47.8029 23.9538 48.1378 22.4785 48.1378 21.2873C48.1378 20.9174 48.1062 20.5773 48.0498 20.2932H42.5697ZM83.4405 21.5273C83.1237 20.6895 82.146 19.145 80.1547 19.145C78.1814 19.145 76.5385 20.6631 76.5385 22.8914C76.5385 24.9897 78.1645 26.6367 80.3441 26.6367C82.1066 26.6367 83.1236 25.5875 83.542 24.9765L82.234 24.1255C81.7976 24.7486 81.2034 25.1615 80.3441 25.1615C79.4905 25.1615 78.8783 24.7795 78.4859 24.0264L83.6175 21.9534L83.4405 21.5273ZM78.2085 22.7747C78.1645 21.3303 79.3575 20.5905 80.2122 20.5905C80.882 20.5905 81.4503 20.9174 81.6397 21.3853L78.2085 22.7747ZM74.0375 26.4088H75.7244V15.3996H74.0375V26.4088ZM71.2749 19.9795H71.2185C70.8396 19.5413 70.1169 19.145 69.2013 19.145C67.2798 19.145 65.523 20.7919 65.523 22.9035C65.523 25.0029 67.2798 26.6367 69.2013 26.6367C70.1169 26.6367 70.8396 26.2371 71.2185 25.7857H71.2749V26.3229C71.2749 27.7552 70.4912 28.5248 69.2272 28.5248C68.1966 28.5248 67.5572 27.7982 67.2934 27.1872L65.8264 27.785C66.2492 28.778 67.3689 30 69.2272 30C71.205 30 72.8738 28.8639 72.8738 26.0995V19.3728H71.2749V19.9795ZM69.3456 25.1615C68.183 25.1615 67.2099 24.2114 67.2099 22.9035C67.2099 21.5835 68.183 20.6202 69.3456 20.6202C70.4912 20.6202 71.3944 21.5835 71.3944 22.9035C71.3944 24.2114 70.4912 25.1615 69.3456 25.1615ZM91.3382 15.3996H87.3036V26.4088H88.986V22.2374H91.3382C93.2066 22.2374 95.0389 20.9174 95.0389 18.818C95.0389 16.7196 93.2021 15.3996 91.3382 15.3996ZM91.3821 20.7061H88.986V16.931H91.3821C92.6383 16.931 93.3554 17.9494 93.3554 18.818C93.3554 19.6701 92.6383 20.7061 91.3821 20.7061ZM101.782 19.124C100.566 19.124 99.3024 19.6481 98.7825 20.8095L100.275 21.4206C100.597 20.8095 101.188 20.6114 101.812 20.6114C102.685 20.6114 103.57 21.1233 103.584 22.0272V22.1428C103.279 21.971 102.628 21.7167 101.826 21.7167C100.218 21.7167 98.5796 22.5809 98.5796 24.1938C98.5796 25.669 99.8966 26.6191 101.377 26.6191C102.509 26.6191 103.134 26.1204 103.526 25.5402H103.584V26.3912H105.209V22.1681C105.209 20.2162 103.716 19.124 101.782 19.124ZM101.579 25.1571C101.029 25.1571 100.262 24.8906 100.262 24.2246C100.262 23.3725 101.218 23.0455 102.046 23.0455C102.787 23.0455 103.134 23.2051 103.584 23.4154C103.452 24.4349 102.553 25.1571 101.579 25.1571ZM111.129 19.3651L109.195 24.1376H109.137L107.138 19.3651H105.324L108.328 26.0345L106.614 29.7457H108.372L113 19.3651H111.129ZM95.9636 26.4088H97.6504V15.3996H95.9636V26.4088Z" fill="white"/>
</svg>
