<svg width="33" height="32" viewBox="0 0 33 32" fill="none" xmlns="http://www.w3.org/2000/svg">
<rect x="0.522461" width="32" height="32" rx="16" fill="#A0A8B1"/>
<path d="M16.6871 24.3343C16.632 24.3343 16.5768 24.3343 16.5212 24.334C15.2147 24.3372 14.0076 24.304 12.8336 24.2325C11.7573 24.167 10.7749 23.7951 9.99235 23.157C9.23726 22.5413 8.72162 21.7088 8.4598 20.6828C8.23193 19.7896 8.21984 18.9129 8.20827 18.0648C8.19988 17.4563 8.19123 16.7353 8.18945 16.0021C8.19123 15.2659 8.19988 14.5449 8.20827 13.9364C8.21984 13.0885 8.23193 12.2117 8.4598 11.3184C8.72162 10.2924 9.23726 9.45992 9.99235 8.84421C10.7749 8.20611 11.7573 7.83416 12.8338 7.76867C14.0077 7.69734 15.2151 7.66402 16.5244 7.6672C17.8312 7.6644 19.038 7.69734 20.2119 7.76867C21.2882 7.83416 22.2707 8.20611 23.0532 8.84421C23.8084 9.45992 24.3239 10.2924 24.5858 11.3184C24.8136 12.2116 24.8257 13.0885 24.8373 13.9364C24.8457 14.5449 24.8545 15.2659 24.8561 15.9991V16.0021C24.8545 16.7353 24.8457 17.4563 24.8373 18.0648C24.8257 18.9127 24.8138 19.7895 24.5858 20.6828C24.3239 21.7088 23.8084 22.5413 23.0532 23.157C22.2707 23.7951 21.2882 24.167 20.2119 24.2325C19.0877 24.3009 17.9328 24.3343 16.6871 24.3343ZM16.5212 23.0319C17.8064 23.0349 18.9865 23.0025 20.1328 22.9328C20.9467 22.8833 21.6523 22.6192 22.2304 22.1478C22.7647 21.7121 23.1327 21.1108 23.3241 20.3608C23.5138 19.6173 23.5247 18.819 23.5353 18.047C23.5436 17.4426 23.5522 16.7267 23.554 16.0006C23.5522 15.2744 23.5436 14.5586 23.5353 13.9542C23.5247 13.1822 23.5138 12.3839 23.3241 11.6402C23.1327 10.8902 22.7647 10.289 22.2304 9.85323C21.6523 9.38197 20.9467 9.11786 20.1328 9.06839C18.9865 8.99858 17.8064 8.96641 16.5242 8.96921C15.2393 8.96615 14.0591 8.99858 12.9127 9.06839C12.0989 9.11786 11.3933 9.38197 10.8152 9.85323C10.2809 10.289 9.91287 10.8902 9.72149 11.6402C9.53177 12.3839 9.52083 13.1821 9.51028 13.9542C9.50201 14.5591 9.49337 15.2754 9.49159 16.0021C9.49337 16.7257 9.50201 17.4421 9.51028 18.047C9.52083 18.819 9.53177 19.6173 9.72149 20.3608C9.91287 21.1108 10.2809 21.7121 10.8152 22.1478C11.3933 22.6191 12.0989 22.8832 12.9127 22.9327C14.0591 23.0025 15.2395 23.0351 16.5212 23.0319ZM16.4902 20.0698C14.2465 20.0698 12.421 18.2444 12.421 16.0006C12.421 13.7568 14.2465 11.9314 16.4902 11.9314C18.7339 11.9314 20.5593 13.7568 20.5593 16.0006C20.5593 18.2444 18.7339 20.0698 16.4902 20.0698ZM16.4902 13.2336C14.9645 13.2336 13.7231 14.4749 13.7231 16.0006C13.7231 17.5263 14.9645 18.7676 16.4902 18.7676C18.016 18.7676 19.2572 17.5263 19.2572 16.0006C19.2572 14.4749 18.016 13.2336 16.4902 13.2336ZM21.0151 10.6293C20.4758 10.6293 20.0385 11.0665 20.0385 11.6059C20.0385 12.1453 20.4758 12.5825 21.0151 12.5825C21.5545 12.5825 21.9917 12.1453 21.9917 11.6059C21.9917 11.0665 21.5545 10.6293 21.0151 10.6293Z" fill="white"/>
</svg>
