<svg width="19" height="18" viewBox="0 0 19 18" fill="none" xmlns="http://www.w3.org/2000/svg">
<path fill-rule="evenodd" clip-rule="evenodd" d="M8.59961 2C5.2859 2 2.59961 4.68629 2.59961 8C2.59961 11.3137 5.2859 14 8.59961 14C11.9133 14 14.5996 11.3137 14.5996 8C14.5996 4.68629 11.9133 2 8.59961 2ZM0.599609 8C0.599609 3.58172 4.18133 0 8.59961 0C13.0179 0 16.5996 3.58172 16.5996 8C16.5996 9.90364 15.9347 11.652 14.8245 13.0255C15.0012 13.0661 15.169 13.1552 15.3067 13.2929L18.3067 16.2929C18.6972 16.6834 18.6972 17.3166 18.3067 17.7071C17.9162 18.0976 17.283 18.0976 16.8925 17.7071L13.8925 14.7071C13.7548 14.5694 13.6657 14.4016 13.6251 14.2249C12.2516 15.3351 10.5033 16 8.59961 16C4.18133 16 0.599609 12.4183 0.599609 8Z" fill="#A0A8B1"/>
</svg>
