<svg width="33" height="32" viewBox="0 0 33 32" fill="none" xmlns="http://www.w3.org/2000/svg">
<rect x="0.522461" width="32" height="32" rx="16" fill="#A0A8B1"/>
<path d="M24.5127 11.9926C24.3207 11.2786 23.7577 10.7157 23.0438 10.5235C21.7396 10.1666 16.5226 10.1666 16.5226 10.1666C16.5226 10.1666 11.3058 10.1666 10.0016 10.5099C9.30141 10.702 8.72473 11.2787 8.53267 11.9926C8.18945 13.2967 8.18945 16.0013 8.18945 16.0013C8.18945 16.0013 8.18945 18.7195 8.53267 20.01C8.72494 20.7239 9.28768 21.2867 10.0017 21.479C11.3195 21.836 16.5228 21.836 16.5228 21.836C16.5228 21.836 21.7396 21.836 23.0438 21.4926C23.7578 21.3005 24.3207 20.7376 24.5129 20.0237C24.8561 18.7195 24.8561 16.015 24.8561 16.015C24.8561 16.015 24.8698 13.2967 24.5127 11.9926ZM14.8616 18.4999V13.5027L19.1998 16.0013L14.8616 18.4999Z" fill="white"/>
</svg>
